<?xml version="1.0" encoding="utf-8"?>
<!-- Generator: Adobe Illustrator 18.1.1, SVG Export Plug-In . SVG Version: 6.00 Build 0)  -->
<!DOCTYPE svg PUBLIC "-//W3C//DTD SVG 1.1//EN" "http://www.w3.org/Graphics/SVG/1.1/DTD/svg11.dtd">
<svg version="1.1" id="Layer_1" xmlns="http://www.w3.org/2000/svg" xmlns:xlink="http://www.w3.org/1999/xlink" x="0px" y="0px"
	 viewBox="0 0 171 41" enable-background="new 0 0 171 41" xml:space="preserve">
<g>
	<g id="Layer_1_1_">
		<circle fill="#2CBB91" cx="150.656" cy="20.344" r="20.344"/>
		<g>
			<path fill="#F8F8F8" d="M120.492,20.409c-1.112,1.7-7.352,7.111-10.72,7.111c-0.785,0-1.308-0.229-1.308-0.752
				c0-2.122,4.328-5.958,5.023-5.958c0.13,0,0.253,0.18,0.253,0.34c0,0.314-1.651,2.194-2.158,2.669
				c0,0.163,0.196,0.483,0.629,0.483c0.678,0,4.34-3.114,4.34-4.218c0-0.229-0.622-0.932-1.112-1.202
				c-0.13-0.343-1.038-1.752-1.847-1.752c-1.228,0-4.023,2.017-5.863,4.606c-2.17,1.919-4.852,4.21-5.235,4.21
				c-0.302,0-0.36-0.224-0.36-0.425c0-0.825,2.568-4.163,4.66-6.382c0-0.953-1.505-2.01-2.683-2.01c-0.537,0-2.5,3.026-4.102,5.81
				c-1.799,1.559-3.557,3.007-3.861,3.007c-0.302,0-0.36-0.224-0.36-0.425c0-1.006,2.155-4.777,4.457-8.28
				c1.646-0.168,2.97-0.377,3.646-0.61c0.813-0.281,0.359-1.447,0.359-1.447c-0.744,0.004-1.637,0.013-2.625,0.016
				c1.291-1.854,2.502-3.43,3.268-4.174c0-0.506-1.504-1.809-2.638-1.809c-0.686,0-2.563,2.659-4.566,5.951
				c-5.047-0.112-10.748-0.57-12.724-2.236c-0.184-0.155-0.467-0.959-0.802-0.967c-0.253-0.006-0.572,0.944-0.593,1.838
				c-0.032,1.298,0.12,2.696,1.109,3.265c0.599,0.345,2.423,0.528,4.735,0.587c-1.815,1.046-4.274,3.357-4.913,4.03
				c-0.109-0.082,0.034-0.294,0.059-0.318c0.074-0.081,0.726-1.427,0.779-2.123c0.087-1.144-1.09-2.114-2.55-2.114
				c-0.015,0.117-0.266,0.77-0.745,1.807c-2.116,3.907-8.044,8.503-9.467,8.503c-0.454,0-0.632-0.157-0.632-0.593
				c0-0.258,0.134-0.645,0.349-1.102c0.195,0.104,0.498,0.202,0.981,0.202c1.39,0,5.933-4.013,6.037-5.864
				c-0.082-0.52-0.605-1.032-1.156-1.382c-0.343-0.506-1.138-1.571-1.786-1.571c-1.952,0-5.24,3.497-6.784,7.017
				c-1.089,1.024-2.146,1.8-2.702,1.8c-0.239,0-0.301-0.248-0.301-0.447c0-0.921,3.021-5.36,3.902-6.43
				c0-0.744-1.558-1.94-2.507-1.94c-1.013,0-5.132,4.142-8.483,8.011c0.226-1.905,6.949-11.645,9.336-13.966
				c0-0.795-1.51-2.146-2.786-1.957c-1.149,0.17-5.798,7.727-8.666,13.093c-2.023,1.773-4.237,3.637-4.583,3.637
				c-0.302,0-0.36-0.224-0.36-0.425c0-1.078,2.526-5.325,5.047-9.019c1.111-0.184,2.04-0.391,2.634-0.605
				c0.81-0.291,0.341-1.452,0.341-1.452c-0.494,0.009-1.019,0.023-1.557,0.037c1.114-1.538,2.126-2.81,2.79-3.456
				c0-0.506-1.097-2.041-2.786-1.809c-0.629,0.086-2.265,2.389-4.081,5.334c-3.867-0.008-7.808-0.332-9.79-1.96
				c-0.186-0.153-0.479-0.953-0.814-0.957c-0.253-0.003-0.56,0.951-0.57,1.845c-0.015,1.298,0.155,2.694,1.151,3.251
				c0.272,0.152,0.72,0.264,1.29,0.343c-2.522,3.679-6.975,8.939-7.601,8.939c-0.098,0-0.37-0.13-0.37-0.49
				c0-1.297,4.571-6.627,5.454-7.346c0-0.665-1.422-2.18-2.436-2.18c-1.351,0-7.016,8.894-7.016,11.444
				c0,1.21,1.262,2.681,2.57,2.681c0.948,0,5.54-5.771,5.605-5.847c0.065-0.076,0.124,0.071,0.124,0.147
				c0,0.076-1.504,2.714-1.504,3.019c0,2.376,1.83,2.681,2.114,2.681c0.704,0,3.661-2.934,6.311-5.722
				c-0.752,1.524-1.24,2.659-1.27,3.04c-0.146,1.817,1.291,2.681,1.962,2.681c0.658,0,3.306-2.405,5.858-4.882
				c-0.516,1.094-0.828,1.892-0.828,2.201c0,2.174,1.543,2.681,2.213,2.681c0.498,0,1.285-1.504,2.069-2.681
				c1.7-2.191,3.881-4.701,5.82-6.213c0.274-0.214,0.441,0.016,0.441,0.13c-0.278,0.417-3.531,4.855-3.531,6.081
				c0,1.374,0.793,2.681,2.199,2.681c0.515,0,2.561-1.818,4.596-3.794c0,0.001,0,0.001,0,0.001c-0.282,1.4,0.742,3.793,2.965,3.793
				c1.469,0,5.283-3.477,7.645-6.06c-0.719,1.2-1.565,2.498-2.577,3.879c0,0.828,1.002,2.18,1.591,2.18
				c1.153,0,3.541-3.837,4.21-4.904c0.603-0.994,4.022-4.14,4.442-4.14c0.281,0,0.255,0.282,0.255,0.282
				c-0.13,0.196-3.099,4.163-3.099,6.081c0,1.264,0.847,2.681,2.041,2.681c0.557,0,3.091-2.059,5.614-4.272
				c-0.335,0.778-0.533,1.345-0.533,1.591c0,2.174,1.291,2.681,1.962,2.681c0.574,0,2.662-1.83,4.879-3.941
				c-0.309,0.637-0.495,1.096-0.495,1.26c0,2.174,1.291,2.681,1.962,2.681c0.717,0,3.79-2.85,6.533-5.54
				c-0.008,0.027-0.02,0.053-0.028,0.079c-0.654,3.106,1.51,5.461,4.48,5.461c3.498,0,10.659-4.97,10.659-7.912
				C121.375,21.815,120.851,20.409,120.492,20.409z M76.826,20.285c0.303,0,0.301,0.258,0.188,0.531
				c-0.188,0.454-2.409,3.666-4.131,3.823C74,22.731,76.081,20.285,76.826,20.285z M45.33,25.946c-0.175,0-0.316-0.229-0.316-0.425
				c0-1.329,3.75-6.036,4.262-6.624c0-0.678-1.125-1.376-2.098-1.721c1.691,0.102,3.966,0.021,6.173-0.17
				c-0.802,1.375-1.595,2.791-2.315,4.125C48.853,23.239,45.829,25.946,45.33,25.946z M93.323,22.988
				c-1.863,1.572-3.733,2.969-4.334,2.969c-0.42,0-0.314-0.306-0.305-0.414c0.065-0.777,1.748-3.655,3.823-5.874
				c0-0.448-0.412-1.392-0.896-1.994c1.517-0.008,3.129-0.056,4.678-0.137C95.208,19.412,94.166,21.332,93.323,22.988z"/>
			<path fill="#F8F8F8" d="M107.048,16.795c1.046,0,4.703-4.294,4.703-4.916c0-1.063-1.471-2.992-2.697-2.992
				c-0.425,0-0.353,0.706-0.49,1.673c-0.163,1.15-1.613,4.093-2.659,5.319C105.903,16.223,106.362,16.795,107.048,16.795z"/>
			<path fill="#F8F8F8" d="M41.663,10.793c0-1.033-2.045-2.755-3.285-2.755c-0.597,0.655-2.684,2.979-4.509,4.764
				c-0.59,0.634-4.85,4.137-10.118,7.633c-6.652-0.241-15.34-0.159-16.582,0.582c-0.946,0.564-1.038,2.804-1.026,3.206
				c0.029,1.006,0.403,1.555,0.738,1.545c0.335-0.01,0.617-0.626,0.828-0.74c1.917-1.035,6.892-1.659,11.914-1.999
				c-4.758,2.809-9.762,5.092-13.388,5.092c-0.505,0-2.696,0.038-3.926-0.689c-1.607-4.796-2.566-3.837-2.25-1.699
				c0.098,0.659,1.318,6.906,7.233,6.906c4.549,0,13.272-5.616,19.123-9.915c1.251-0.029,2.391-0.039,3.351-0.034
				c-1.056,1.911-2.039,3.829-2.039,4.254c0,1.906,1.583,3.352,2.525,3.352c0.368,0,0.57-0.667,0.666-0.941
				c1.348-3.843,5.01-10.993,6.566-13.133C38.529,14.77,41.663,11.287,41.663,10.793z M32.195,18.56
				c-0.245,0.352-0.803,1.275-1.444,2.387c-0.424-0.074-1.006-0.143-1.712-0.207c1.481-1.155,2.568-2.071,3.032-2.525
				C32.206,18.216,32.295,18.417,32.195,18.56z"/>
			<g>
				<path fill="#F8F8F8" d="M121.214,26.933c0.982,0,1.783,0.801,1.783,1.784c0,0.982-0.801,1.778-1.783,1.778
					c-0.983,0-1.779-0.796-1.779-1.778C119.435,27.734,120.231,26.933,121.214,26.933z M121.219,30.201
					c0.821,0,1.489-0.668,1.489-1.483c0-0.821-0.668-1.494-1.489-1.494c-0.821,0-1.484,0.673-1.484,1.494
					C119.735,29.532,120.398,30.201,121.219,30.201z M120.477,27.788h0.89c0.511,0,0.703,0.3,0.703,0.604
					c0,0.201-0.103,0.418-0.354,0.526c0.094,0.157,0.3,0.575,0.394,0.717h-0.457l-0.339-0.669h-0.412v0.669h-0.423L120.477,27.788
					L120.477,27.788z M121.322,28.649c0.246,0,0.33-0.137,0.33-0.255c0-0.132-0.083-0.27-0.33-0.27H120.9v0.525H121.322z"/>
			</g>
		</g>
	</g>
	<g id="Layer_3">
		<g>
			<path fill="#F8F8F8" d="M143.496,17.018h1.809l2.661,7.362h-1.703l-0.462-1.378h-2.798l-0.452,1.378h-1.715L143.496,17.018z
				 M143.4,21.772h1.988l-0.989-2.987h-0.02L143.4,21.772z"/>
			<path fill="#F8F8F8" d="M149.926,17.018h3.082c2.114,0,2.839,1.157,2.839,2.335c0,1.167-0.736,2.356-2.829,2.356h-1.494v2.671
				h-1.599V17.018z M152.996,20.467c0.862,0,1.262-0.473,1.262-1.094c0-0.631-0.41-1.083-1.251-1.083h-1.483v2.177L152.996,20.467
				L152.996,20.467z"/>
			<path fill="#F8F8F8" d="M158.102,17.018h1.599v7.362h-1.599V17.018z"/>
		</g>
	</g>
</g>
</svg>
